<svg width="183" height="158" viewBox="0 0 183 158" fill="none" xmlns="http://www.w3.org/2000/svg">
<path d="M154.635 38.623C156.4 38.6232 157.831 40.0548 157.831 41.8203V58.1807C157.831 59.9462 156.401 61.3778 154.635 61.3779H137.387C131.104 61.3779 126.01 56.2834 126.01 50C126.01 43.7166 131.104 38.623 137.387 38.623H154.635ZM135.044 45.5947C132.611 45.595 130.639 47.567 130.639 50C130.639 52.4329 132.611 54.405 135.044 54.4053C137.477 54.4053 139.45 52.4331 139.45 50C139.45 47.5669 137.477 45.5947 135.044 45.5947Z" fill="white"/>
<path d="M142.115 0C148.758 0 154.143 5.38493 154.143 12.0273V35.9561H137.12C129.364 35.9562 123.077 42.2441 123.076 50C123.077 57.7559 129.364 64.0438 137.12 64.0439H154.143V87.9727C154.143 94.6151 148.758 100 142.115 100H36.8049C30.1625 100 24.7776 94.6151 24.7776 87.9727V63.9473H55.47L59.9612 68.4375C58.9494 69.9163 58.3567 71.7039 58.3567 73.627C58.3568 78.7069 62.4896 82.8397 67.5696 82.8398C72.6497 82.8398 76.7833 78.7069 76.7834 73.627C76.7834 68.5469 72.6497 64.4131 67.5696 64.4131C65.6465 64.4131 63.8589 65.0068 62.3801 66.0186L57.3879 61.0264C57.0672 60.7057 56.6324 60.5255 56.179 60.5254H24.7776V51.7109H81.6995C82.5039 55.9762 86.2576 59.2129 90.7532 59.2129C95.8331 59.2128 99.9659 55.0799 99.9661 50C99.9661 44.9199 95.8332 40.7862 90.7532 40.7861C86.2575 40.7861 82.5038 44.0237 81.6995 48.2891H24.7776V39.4746H56.178C56.6316 39.4746 57.0671 39.2943 57.3879 38.9736L62.3801 33.9824C63.859 34.9942 65.6464 35.5869 67.5696 35.5869C72.6497 35.5869 76.7825 31.4532 76.7825 26.373C76.7823 21.293 72.6496 17.1602 67.5696 17.1602C62.4896 17.1602 58.3569 21.2931 58.3567 26.373C58.3567 28.2962 58.9494 30.0837 59.9612 31.5625L55.47 36.0527H24.7776V12.0273C24.7776 5.38493 30.1625 0 36.8049 0H142.115ZM38.2942 91.1123C37.4716 91.1123 36.8049 91.78 36.8049 92.6025C36.8051 93.425 37.4717 94.0918 38.2942 94.0918H42.5715C43.3938 94.0916 44.0606 93.4248 44.0608 92.6025C44.0608 91.7801 43.394 91.1125 42.5715 91.1123H38.2942ZM49.4143 91.1123C48.5919 91.1125 47.925 91.7801 47.925 92.6025C47.9252 93.4248 48.592 94.0916 49.4143 94.0918H53.6917C54.5141 94.0918 55.1807 93.425 55.1809 92.6025C55.1809 91.78 54.5142 91.1123 53.6917 91.1123H49.4143ZM60.5354 91.1123C59.7128 91.1123 59.0461 91.78 59.0461 92.6025C59.0463 93.425 59.7129 94.0918 60.5354 94.0918H64.8127C65.6351 94.0917 66.3018 93.4249 66.302 92.6025C66.302 91.78 65.6352 91.1124 64.8127 91.1123H60.5354ZM71.6555 91.1123C70.8331 91.1125 70.1663 91.7801 70.1663 92.6025C70.1665 93.4248 70.8332 94.0916 71.6555 94.0918H75.9329C76.7554 94.0918 77.4219 93.425 77.4221 92.6025C77.4221 91.78 76.7554 91.1123 75.9329 91.1123H71.6555ZM82.7766 91.1123C81.954 91.1123 81.2874 91.78 81.2874 92.6025C81.2875 93.425 81.9541 94.0918 82.7766 94.0918H87.054C87.8763 94.0917 88.5431 93.4249 88.5432 92.6025C88.5432 91.7801 87.8764 91.1125 87.054 91.1123H82.7766ZM93.8967 91.1123C93.0744 91.1126 92.4075 91.7801 92.4075 92.6025C92.4077 93.4248 93.0745 94.0915 93.8967 94.0918H98.1741C98.9965 94.0918 99.6631 93.425 99.6633 92.6025C99.6633 91.78 98.9967 91.1123 98.1741 91.1123H93.8967ZM105.018 91.1123C104.195 91.1123 103.529 91.78 103.529 92.6025C103.529 93.425 104.195 94.0918 105.018 94.0918H109.295C110.118 94.0917 110.784 93.4249 110.784 92.6025C110.784 91.78 110.118 91.1124 109.295 91.1123H105.018ZM116.138 91.1123C115.316 91.1126 114.649 91.7801 114.649 92.6025C114.649 93.4248 115.316 94.0915 116.138 94.0918H120.415C121.238 94.0918 121.904 93.425 121.905 92.6025C121.905 91.78 121.238 91.1123 120.415 91.1123H116.138ZM127.259 91.1123C126.436 91.1123 125.77 91.78 125.77 92.6025C125.77 93.4249 126.437 94.0918 127.259 94.0918H131.536C132.359 94.0917 133.025 93.4249 133.026 92.6025C133.026 91.78 132.359 91.1124 131.536 91.1123H127.259ZM142.488 91.0693C142.231 91.0984 141.949 91.1122 141.654 91.1123H138.379C137.557 91.1125 136.89 91.7801 136.89 92.6025C136.89 93.4248 137.557 94.0916 138.379 94.0918H141.655C142.062 94.0917 142.455 94.0707 142.822 94.0293C143.639 93.937 144.226 93.199 144.134 92.3818C144.042 91.5647 143.305 90.9777 142.488 91.0693ZM146.655 82.1289C145.832 82.1289 145.165 82.7957 145.165 83.6182V87.542C145.165 87.6437 145.163 87.7456 145.159 87.8447C145.132 88.6669 145.776 89.3559 146.598 89.3838C146.615 89.3844 146.633 89.3848 146.65 89.3848C147.448 89.3846 148.11 88.751 148.137 87.9463C148.141 87.8136 148.144 87.6773 148.144 87.542V83.6182C148.144 82.7958 147.477 82.129 146.655 82.1289ZM67.5696 67.835C70.763 67.835 73.3616 70.4335 73.3616 73.627C73.3614 76.8203 70.7629 79.418 67.5696 79.418C64.3763 79.4179 61.7787 76.8202 61.7786 73.627C61.7786 70.4336 64.3762 67.835 67.5696 67.835ZM146.655 71.0088C145.832 71.0088 145.165 71.6755 145.165 72.498V76.7754C145.166 77.5978 145.832 78.2646 146.655 78.2646C147.477 78.2645 148.144 77.5978 148.144 76.7754V72.498C148.144 71.6755 147.477 71.0089 146.655 71.0088ZM90.7532 44.208C93.9465 44.2081 96.5442 46.8066 96.5442 50C96.544 53.1932 93.9464 55.7909 90.7532 55.791C87.5598 55.791 84.9614 53.1933 84.9612 50C84.9612 46.8066 87.5597 44.208 90.7532 44.208ZM67.5696 20.582C70.7629 20.582 73.3614 23.1797 73.3616 26.373C73.3616 29.5665 70.763 32.165 67.5696 32.165C64.3762 32.165 61.7786 29.5664 61.7786 26.373C61.7787 23.1798 64.3763 20.5821 67.5696 20.582ZM146.655 21.7354C145.832 21.7354 145.165 22.4021 145.165 23.2246V27.502C145.165 28.3245 145.832 28.9912 146.655 28.9912C147.477 28.9911 148.144 28.3245 148.144 27.502V23.2246C148.144 22.4022 147.477 21.7354 146.655 21.7354ZM146.598 10.6162C145.776 10.6441 145.132 11.3332 145.159 12.1553C145.163 12.2543 145.165 12.3563 145.165 12.458V16.3809C145.165 17.2034 145.832 17.8711 146.655 17.8711C147.477 17.871 148.144 17.2034 148.144 16.3809V12.458C148.144 12.3227 148.141 12.1864 148.137 12.0537C148.11 11.249 147.449 10.6154 146.65 10.6152C146.632 10.6152 146.615 10.6156 146.598 10.6162ZM138.38 5.9082C137.558 5.9082 136.89 6.57494 136.89 7.39746C136.89 8.22004 137.558 8.88672 138.38 8.88672H141.655C141.95 8.88688 142.231 8.90172 142.488 8.93066C143.305 9.02232 144.043 8.4346 144.135 7.61719C144.227 6.80007 143.639 6.06292 142.822 5.9707C142.454 5.92933 142.062 5.90836 141.655 5.9082H138.38ZM38.2942 5.9082C37.4717 5.9082 36.805 6.57498 36.8049 7.39746C36.8049 8.22004 37.4716 8.88672 38.2942 8.88672H42.5715C43.394 8.88653 44.0608 8.21993 44.0608 7.39746C44.0607 6.57502 43.3939 5.90839 42.5715 5.9082H38.2942ZM49.4143 5.9082C48.592 5.90842 47.9252 6.57511 47.925 7.39746C47.925 8.21991 48.5919 8.8865 49.4143 8.88672H53.6917C54.5142 8.88672 55.1809 8.22004 55.1809 7.39746C55.1808 6.5749 54.5142 5.9082 53.6917 5.9082H49.4143ZM60.5354 5.9082C59.7129 5.9082 59.0463 6.57498 59.0461 7.39746C59.0461 8.22004 59.7128 8.88672 60.5354 8.88672H64.8127C65.6352 8.88657 66.302 8.21995 66.302 7.39746C66.3019 6.57499 65.6351 5.90835 64.8127 5.9082H60.5354ZM71.6555 5.9082C70.8332 5.90842 70.1664 6.57511 70.1663 7.39746C70.1663 8.21991 70.8331 8.8865 71.6555 8.88672H75.9329C76.7554 8.88672 77.4221 8.22004 77.4221 7.39746C77.422 6.5749 76.7554 5.9082 75.9329 5.9082H71.6555ZM82.7766 5.9082C81.9541 5.9082 81.2875 6.57498 81.2874 7.39746C81.2874 8.22004 81.954 8.88672 82.7766 8.88672H87.054C87.8764 8.88657 88.5432 8.21995 88.5432 7.39746C88.5431 6.57502 87.8764 5.90839 87.054 5.9082H82.7766ZM93.8967 5.9082C93.0744 5.90846 92.4076 6.57514 92.4075 7.39746C92.4075 8.21988 93.0744 8.88646 93.8967 8.88672H98.1741C98.9967 8.88672 99.6633 8.22004 99.6633 7.39746C99.6632 6.5749 98.9966 5.9082 98.1741 5.9082H93.8967ZM105.018 5.9082C104.195 5.9082 103.529 6.57498 103.529 7.39746C103.529 8.22004 104.195 8.88672 105.018 8.88672H109.295C110.118 8.88658 110.784 8.21996 110.784 7.39746C110.784 6.57499 110.118 5.90835 109.295 5.9082H105.018ZM116.138 5.9082C115.316 5.90846 114.649 6.57514 114.649 7.39746C114.649 8.21988 115.316 8.88646 116.138 8.88672H120.415C121.238 8.88672 121.905 8.22004 121.905 7.39746C121.904 6.5749 121.238 5.9082 120.415 5.9082H116.138ZM127.259 5.9082C126.437 5.90822 125.77 6.57499 125.77 7.39746C125.77 8.22003 126.436 8.88671 127.259 8.88672H131.536C132.359 8.88662 133.026 8.21998 133.026 7.39746C133.026 6.57496 132.359 5.90831 131.536 5.9082H127.259Z" fill="white"/>
<path d="M182.161 132.182V137.296H167.38V132.182H182.161ZM170.735 126.302H177.543V149.185C177.543 149.814 177.639 150.304 177.831 150.655C178.022 150.996 178.289 151.236 178.63 151.375C178.981 151.513 179.386 151.582 179.844 151.582C180.164 151.582 180.483 151.556 180.803 151.502C181.123 151.438 181.368 151.391 181.538 151.359L182.609 156.424C182.268 156.531 181.788 156.653 181.17 156.792C180.553 156.941 179.802 157.032 178.917 157.063C177.277 157.127 175.838 156.909 174.603 156.408C173.378 155.908 172.424 155.13 171.742 154.075C171.06 153.021 170.725 151.689 170.735 150.08V126.302Z" fill="white"/>
<path d="M153.397 157.207C150.872 157.207 148.699 156.695 146.877 155.673C145.066 154.639 143.671 153.18 142.69 151.294C141.71 149.398 141.22 147.155 141.22 144.566C141.22 142.042 141.71 139.826 142.69 137.919C143.671 136.012 145.05 134.526 146.829 133.46C148.619 132.395 150.718 131.862 153.125 131.862C154.745 131.862 156.252 132.123 157.648 132.645C159.054 133.157 160.279 133.929 161.323 134.962C162.378 135.996 163.198 137.296 163.784 138.862C164.37 140.417 164.663 142.239 164.663 144.327V146.196H143.937V141.978H158.255C158.255 140.998 158.042 140.129 157.616 139.373C157.19 138.617 156.598 138.025 155.842 137.599C155.096 137.162 154.228 136.944 153.237 136.944C152.204 136.944 151.288 137.184 150.489 137.663C149.7 138.132 149.082 138.766 148.635 139.565C148.188 140.353 147.958 141.232 147.948 142.201V146.212C147.948 147.427 148.172 148.476 148.619 149.361C149.077 150.245 149.722 150.927 150.553 151.406C151.384 151.885 152.369 152.125 153.509 152.125C154.265 152.125 154.958 152.019 155.586 151.805C156.215 151.592 156.753 151.273 157.2 150.847C157.648 150.421 157.989 149.899 158.223 149.281L164.519 149.696C164.2 151.209 163.544 152.53 162.554 153.659C161.574 154.778 160.306 155.651 158.75 156.28C157.206 156.898 155.421 157.207 153.397 157.207Z" fill="white"/>
<path d="M136.758 124V156.727H129.95V124H136.758Z" fill="white"/>
<path d="M124.497 124V156.727H117.689V124H124.497Z" fill="white"/>
<path d="M98.5852 157.191C97.0191 157.191 95.6235 156.919 94.3984 156.376C93.1732 155.822 92.2038 155.007 91.49 153.931C90.7869 152.844 90.4353 151.491 90.4353 149.872C90.4353 148.508 90.6857 147.363 91.1864 146.436C91.6871 145.509 92.3689 144.764 93.2318 144.199C94.0948 143.634 95.0749 143.208 96.1722 142.921C97.2801 142.633 98.4413 142.43 99.6558 142.313C101.083 142.164 102.234 142.026 103.108 141.898C103.981 141.759 104.615 141.557 105.009 141.291C105.403 141.024 105.6 140.63 105.6 140.108V140.012C105.6 139 105.281 138.217 104.642 137.663C104.013 137.109 103.118 136.832 101.957 136.832C100.732 136.832 99.757 137.104 99.0326 137.647C98.3082 138.18 97.8288 138.851 97.5944 139.661L91.2982 139.149C91.6178 137.658 92.2464 136.369 93.1839 135.282C94.1214 134.185 95.3305 133.343 96.8114 132.757C98.3028 132.161 100.029 131.862 101.989 131.862C103.353 131.862 104.658 132.022 105.904 132.342C107.161 132.661 108.274 133.157 109.244 133.828C110.224 134.499 110.996 135.362 111.561 136.417C112.126 137.461 112.408 138.712 112.408 140.172V156.727H105.952V153.324H105.76C105.366 154.091 104.839 154.767 104.178 155.353C103.518 155.928 102.724 156.381 101.797 156.711C100.87 157.031 99.7997 157.191 98.5852 157.191ZM100.535 152.493C101.536 152.493 102.42 152.296 103.187 151.901C103.954 151.497 104.556 150.953 104.993 150.271C105.43 149.59 105.648 148.817 105.648 147.954V145.35C105.435 145.488 105.142 145.616 104.769 145.733C104.407 145.84 103.997 145.941 103.539 146.037C103.081 146.122 102.623 146.202 102.165 146.276C101.707 146.34 101.291 146.399 100.918 146.452C100.119 146.569 99.4215 146.756 98.8249 147.011C98.2283 147.267 97.7648 147.613 97.4346 148.05C97.1043 148.476 96.9392 149.009 96.9392 149.648C96.9392 150.575 97.2748 151.283 97.946 151.774C98.6278 152.253 99.4907 152.493 100.535 152.493Z" fill="white"/>
<path d="M55.0914 156.727L45.7271 124H53.2856L58.7029 146.74H58.9746L64.9511 124H71.4231L77.3837 146.788H77.6713L83.0886 124H90.6471L81.2828 156.727H74.5392L68.307 135.33H68.0513L61.835 156.727H55.0914Z" fill="white"/>
<path d="M42.7189 137.663V143.064H27.7935V137.663H42.7189Z" fill="white"/>
<path d="M0 156.727V124H22.0526V129.705H6.91939V137.503H20.918V143.208H6.91939V151.022H22.1165V156.727H0Z" fill="white"/>
</svg>
