<svg width="142" height="25" viewBox="0 0 142 25" fill="none" xmlns="http://www.w3.org/2000/svg">
<path d="M99.7549 7.88738V10.6877H91.6602V7.88738H99.7549ZM93.4979 4.66699H97.2258V17.1985C97.2258 17.5427 97.2783 17.8111 97.3833 18.0036C97.4884 18.1903 97.6342 18.3215 97.8209 18.3974C98.0134 18.4732 98.2351 18.5112 98.486 18.5112C98.661 18.5112 98.836 18.4966 99.011 18.4674C99.1861 18.4324 99.3202 18.4061 99.4136 18.3886L99.9999 21.1627C99.8132 21.2211 99.5507 21.2882 99.2123 21.364C98.8739 21.4457 98.4626 21.4953 97.9784 21.5128C97.08 21.5478 96.2924 21.4282 95.6156 21.154C94.9447 20.8798 94.4226 20.4539 94.0492 19.8763C93.6758 19.2987 93.492 18.5695 93.4979 17.6886V4.66699Z" fill="white"/>
<path d="M84.0038 21.5921C82.6211 21.5921 81.4309 21.312 80.4333 20.752C79.4415 20.1861 78.6773 19.3868 78.1406 18.3542C77.6038 17.3157 77.3354 16.0876 77.3354 14.67C77.3354 13.2873 77.6038 12.0738 78.1406 11.0295C78.6773 9.98525 79.4328 9.1714 80.4071 8.58799C81.3872 8.00459 82.5365 7.71289 83.855 7.71289C84.7418 7.71289 85.5673 7.85582 86.3315 8.14169C87.1016 8.42173 87.7725 8.84469 88.3443 9.41059C88.9218 9.9765 89.3711 10.6882 89.6919 11.5459C90.0128 12.3976 90.1732 13.3952 90.1732 14.5387V15.5626H78.8231V13.2523H86.6641C86.6641 12.7156 86.5474 12.2401 86.314 11.8259C86.0807 11.4117 85.7569 11.0879 85.3427 10.8545C84.9343 10.6153 84.4588 10.4957 83.9162 10.4957C83.3503 10.4957 82.8486 10.627 82.4111 10.8895C81.9793 11.1462 81.641 11.4933 81.3959 11.9309C81.1509 12.3626 81.0255 12.8439 81.0196 13.3748V15.5713C81.0196 16.2364 81.1422 16.8111 81.3872 17.2953C81.6381 17.7795 81.991 18.1529 82.4461 18.4154C82.9011 18.678 83.4408 18.8092 84.065 18.8092C84.4792 18.8092 84.8584 18.7509 85.2027 18.6342C85.5469 18.5175 85.8415 18.3425 86.0865 18.1091C86.3315 17.8758 86.5182 17.5899 86.6466 17.2515L90.0945 17.4791C89.9195 18.3075 89.5607 19.0309 89.0181 19.6493C88.4814 20.2619 87.7871 20.7403 86.9354 21.0845C86.0894 21.4229 85.1122 21.5921 84.0038 21.5921Z" fill="white"/>
<path d="M74.892 3.40723V21.3294H71.1641V3.40723H74.892Z" fill="white"/>
<path d="M68.1772 3.40723V21.3294H64.4492V3.40723H68.1772Z" fill="white"/>
<path d="M53.9875 21.5833C53.1298 21.5833 52.3656 21.4345 51.6947 21.137C51.0238 20.8336 50.4929 20.3873 50.102 19.7981C49.7169 19.203 49.5244 18.4621 49.5244 17.5753C49.5244 16.8286 49.6615 16.2014 49.9357 15.6938C50.2099 15.1863 50.5833 14.7779 51.0559 14.4687C51.5284 14.1595 52.0651 13.9261 52.666 13.7686C53.2728 13.6111 53.9087 13.5003 54.5738 13.4361C55.3555 13.3544 55.9856 13.2786 56.464 13.2085C56.9424 13.1327 57.2895 13.0219 57.5054 12.876C57.7212 12.7302 57.8292 12.5143 57.8292 12.2284V12.1759C57.8292 11.6217 57.6541 11.1929 57.3041 10.8895C56.9599 10.5862 56.4698 10.4345 55.8339 10.4345C55.163 10.4345 54.6292 10.5832 54.2325 10.8808C53.8358 11.1725 53.5732 11.54 53.4449 11.9834L49.997 11.7034C50.172 10.8866 50.5162 10.1807 51.0296 9.58562C51.543 8.98471 52.2052 8.52382 53.0161 8.20295C53.8328 7.87624 54.778 7.71289 55.8514 7.71289C56.5982 7.71289 57.3129 7.8004 57.9954 7.97542C58.6839 8.15044 59.2935 8.42173 59.8244 8.78927C60.3611 9.15681 60.7841 9.62937 61.0933 10.2069C61.4025 10.7787 61.5571 11.4642 61.5571 12.2634V21.3295H58.0217V19.4656H57.9167C57.7008 19.8856 57.412 20.2561 57.0503 20.5769C56.6886 20.892 56.254 21.1399 55.7464 21.3208C55.2389 21.4958 54.6525 21.5833 53.9875 21.5833ZM55.0551 19.0105C55.6035 19.0105 56.0877 18.9026 56.5078 18.6867C56.9278 18.465 57.2574 18.1675 57.4966 17.7941C57.7358 17.4207 57.8554 16.9978 57.8554 16.5252V15.0988C57.7387 15.1746 57.5783 15.2446 57.3741 15.3088C57.1758 15.3671 56.9511 15.4226 56.7003 15.4751C56.4494 15.5217 56.1986 15.5655 55.9477 15.6063C55.6968 15.6413 55.4693 15.6734 55.2651 15.7026C54.8276 15.7668 54.4454 15.8689 54.1187 16.0089C53.792 16.1489 53.5382 16.3385 53.3574 16.5777C53.1765 16.8111 53.0861 17.1028 53.0861 17.4528C53.0861 17.9604 53.2699 18.3483 53.6374 18.6167C54.0108 18.8792 54.4833 19.0105 55.0551 19.0105Z" fill="white"/>
<path d="M30.1689 21.3294L25.0408 3.40723H29.18L32.1466 15.86H32.2954L35.5683 3.40723H39.1125L42.3766 15.8862H42.5341L45.5007 3.40723H49.64L44.5119 21.3294H40.8189L37.406 9.61172H37.266L33.8618 21.3294H30.1689Z" fill="white"/>
<path d="M23.3935 10.8896V13.8475H15.22V10.8896H23.3935Z" fill="white"/>
<path d="M0 21.3294V3.40723H12.0765V6.53135H3.7892V10.8019H11.4551V13.926H3.7892V18.2053H12.1115V21.3294H0Z" fill="white"/>
<path d="M140.462 9.65527C140.904 9.65527 141.262 10.0129 141.262 10.4541V14.5449C141.262 14.9862 140.904 15.3438 140.462 15.3438H136.15C134.579 15.3435 133.305 14.0705 133.305 12.5C133.305 10.9293 134.579 9.6555 136.15 9.65527H140.462ZM135.566 11.3984C134.958 11.3984 134.465 11.891 134.464 12.499C134.464 13.1073 134.958 13.6006 135.566 13.6006C136.174 13.6006 136.667 13.1073 136.667 12.499C136.667 11.891 136.174 11.3985 135.566 11.3984Z" fill="white"/>
<path d="M137.34 0C139 0.000256579 140.347 1.34639 140.347 3.00684V8.98926H136.088C134.149 8.98946 132.576 10.5612 132.576 12.5C132.576 14.4388 134.149 16.0115 136.088 16.0117H140.347V21.9932C140.347 23.6536 139 24.9997 137.34 25H111.007C109.346 24.9997 108 23.6536 108 21.9932V15.9863H115.674L116.797 17.1094C116.544 17.479 116.396 17.9257 116.396 18.4062C116.396 19.6762 117.429 20.7098 118.699 20.71C119.969 20.71 121.003 19.6763 121.003 18.4062C121.003 17.1364 119.969 16.1035 118.699 16.1035C118.218 16.1036 117.772 16.252 117.402 16.5049L116.154 15.2568C116.074 15.1767 115.965 15.1309 115.852 15.1309H108V12.9277H122.232C122.434 13.994 123.372 14.8027 124.496 14.8027C125.766 14.8027 126.8 13.77 126.8 12.5C126.8 11.23 125.766 10.1963 124.496 10.1963C123.372 10.1963 122.434 11.0059 122.232 12.0723H108V9.86816H115.852C115.965 9.86811 116.074 9.8233 116.154 9.74316L117.402 8.49512C117.772 8.748 118.218 8.89642 118.699 8.89648C119.969 8.89648 121.003 7.8636 121.003 6.59375C121.003 5.32371 119.969 4.29004 118.699 4.29004C117.429 4.29022 116.396 5.32382 116.396 6.59375C116.396 7.07435 116.544 7.52104 116.797 7.89062L115.674 9.01367H108V3.00684C108 1.34639 109.346 0.00026013 111.007 0H137.34ZM111.375 22.7783C111.17 22.7785 111.003 22.9449 111.003 23.1504C111.003 23.3559 111.169 23.5223 111.375 23.5225H112.444C112.65 23.5225 112.817 23.356 112.817 23.1504C112.817 22.9448 112.65 22.7783 112.444 22.7783H111.375ZM114.156 22.7783C113.951 22.7783 113.783 22.9448 113.783 23.1504C113.783 23.356 113.951 23.5225 114.156 23.5225H115.226C115.431 23.5224 115.598 23.356 115.598 23.1504C115.598 22.9449 115.431 22.7784 115.226 22.7783H114.156ZM116.937 22.7783C116.731 22.7783 116.565 22.9448 116.564 23.1504C116.564 23.356 116.731 23.5224 116.937 23.5225H118.006C118.212 23.5225 118.378 23.356 118.378 23.1504C118.378 22.9448 118.212 22.7783 118.006 22.7783H116.937ZM119.717 22.7783C119.511 22.7785 119.345 22.9449 119.345 23.1504C119.345 23.3559 119.511 23.5223 119.717 23.5225H120.786C120.992 23.5225 121.159 23.356 121.159 23.1504C121.159 22.9448 120.992 22.7783 120.786 22.7783H119.717ZM122.498 22.7783C122.292 22.7783 122.125 22.9448 122.125 23.1504C122.125 23.356 122.292 23.5225 122.498 23.5225H123.567C123.773 23.5224 123.939 23.356 123.939 23.1504C123.939 22.9449 123.773 22.7784 123.567 22.7783H122.498ZM125.278 22.7783C125.073 22.7783 124.906 22.9448 124.906 23.1504C124.906 23.356 125.073 23.5224 125.278 23.5225H126.348C126.553 23.5225 126.72 23.356 126.72 23.1504C126.72 22.9448 126.553 22.7783 126.348 22.7783H125.278ZM128.059 22.7783C127.853 22.7785 127.687 22.9449 127.687 23.1504C127.687 23.3559 127.853 23.5223 128.059 23.5225H129.128C129.334 23.5225 129.501 23.356 129.501 23.1504C129.501 22.9448 129.334 22.7783 129.128 22.7783H128.059ZM130.84 22.7783C130.634 22.7783 130.467 22.9448 130.467 23.1504C130.467 23.356 130.634 23.5225 130.84 23.5225H131.909C132.115 23.5224 132.281 23.356 132.281 23.1504C132.281 22.9449 132.115 22.7784 131.909 22.7783H130.84ZM133.62 22.7783C133.414 22.7783 133.248 22.9448 133.248 23.1504C133.248 23.356 133.414 23.5224 133.62 23.5225H134.689C134.895 23.5225 135.062 23.356 135.062 23.1504C135.061 22.9448 134.895 22.7783 134.689 22.7783H133.62ZM137.428 22.7676C137.364 22.7748 137.294 22.7783 137.22 22.7783H136.4C136.195 22.7785 136.028 22.9449 136.028 23.1504C136.028 23.3559 136.195 23.5223 136.4 23.5225H137.22C137.321 23.5224 137.42 23.5172 137.512 23.5068C137.716 23.4836 137.863 23.2998 137.84 23.0957C137.817 22.8914 137.632 22.7447 137.428 22.7676ZM138.47 20.5322C138.264 20.5322 138.098 20.6988 138.098 20.9043V21.8857C138.098 21.911 138.097 21.9363 138.096 21.9609C138.089 22.1665 138.25 22.3387 138.456 22.3457C138.46 22.3458 138.465 22.3457 138.469 22.3457C138.668 22.3456 138.834 22.1875 138.841 21.9863C138.842 21.9533 138.842 21.9194 138.842 21.8857V20.9043C138.842 20.6988 138.675 20.5322 138.47 20.5322ZM118.699 16.959C119.498 16.959 120.147 17.6081 120.147 18.4062C120.147 19.2046 119.498 19.8545 118.699 19.8545C117.901 19.8543 117.252 19.2045 117.252 18.4062C117.252 17.6082 117.901 16.9592 118.699 16.959ZM138.47 17.752C138.264 17.752 138.098 17.9186 138.098 18.124V19.1934C138.098 19.399 138.264 19.5664 138.47 19.5664C138.675 19.5664 138.842 19.399 138.842 19.1934V18.124C138.842 17.9186 138.675 17.752 138.47 17.752ZM124.496 11.0518C125.295 11.0518 125.944 11.7016 125.944 12.5C125.944 13.2983 125.295 13.9473 124.496 13.9473C123.698 13.9472 123.048 13.2983 123.048 12.5C123.048 11.7017 123.698 11.0518 124.496 11.0518ZM118.699 5.14551C119.498 5.14551 120.147 5.79539 120.147 6.59375C120.147 7.39191 119.498 8.04102 118.699 8.04102C117.901 8.04084 117.252 7.3918 117.252 6.59375C117.252 5.7955 117.901 5.14568 118.699 5.14551ZM138.47 5.43359C138.264 5.4336 138.098 5.601 138.098 5.80664V6.875C138.098 7.08064 138.264 7.24804 138.47 7.24805C138.675 7.24805 138.842 7.08065 138.842 6.875V5.80664C138.842 5.601 138.675 5.43359 138.47 5.43359ZM138.456 2.6543C138.25 2.66128 138.089 2.83353 138.096 3.03906C138.097 3.06368 138.098 3.08896 138.098 3.11426V4.0957C138.098 4.30116 138.264 4.46777 138.47 4.46777C138.675 4.46777 138.842 4.30117 138.842 4.0957V3.11426C138.842 3.08056 138.842 3.04671 138.841 3.01367C138.834 2.81254 138.668 2.65345 138.469 2.65332C138.465 2.65332 138.46 2.65416 138.456 2.6543ZM136.4 1.47656C136.195 1.47676 136.028 1.64408 136.028 1.84961C136.028 2.05504 136.195 2.22149 136.4 2.22168H137.22C137.294 2.22173 137.364 2.2252 137.428 2.23242C137.632 2.25533 137.817 2.10865 137.84 1.9043C137.863 1.70011 137.716 1.51538 137.512 1.49219C137.42 1.48185 137.321 1.47661 137.22 1.47656H136.4ZM111.375 1.47754C111.169 1.47772 111.003 1.64408 111.003 1.84961C111.003 2.05505 111.17 2.2215 111.375 2.22168H112.444C112.65 2.22168 112.817 2.05516 112.817 1.84961C112.817 1.64395 112.65 1.47754 112.444 1.47754H111.375ZM114.156 1.47754C113.951 1.47754 113.783 1.64396 113.783 1.84961C113.783 2.05516 113.951 2.22168 114.156 2.22168H115.226C115.431 2.22158 115.598 2.0551 115.598 1.84961C115.598 1.64401 115.431 1.47764 115.226 1.47754H114.156ZM116.937 1.47754C116.731 1.47755 116.564 1.64397 116.564 1.84961C116.565 2.05516 116.731 2.22167 116.937 2.22168H118.006C118.211 2.22168 118.378 2.05516 118.378 1.84961C118.378 1.64395 118.212 1.47754 118.006 1.47754H116.937ZM119.717 1.47754C119.511 1.47772 119.345 1.64408 119.345 1.84961C119.345 2.05505 119.511 2.2215 119.717 2.22168H120.786C120.992 2.22168 121.159 2.05516 121.159 1.84961C121.159 1.64395 120.992 1.47754 120.786 1.47754H119.717ZM122.498 1.47754C122.292 1.47754 122.125 1.64396 122.125 1.84961C122.125 2.05516 122.292 2.22168 122.498 2.22168H123.567C123.773 2.22158 123.939 2.0551 123.939 1.84961C123.939 1.64402 123.773 1.47765 123.567 1.47754H122.498ZM125.278 1.47754C125.073 1.47755 124.906 1.64397 124.906 1.84961C124.906 2.05516 125.073 2.22167 125.278 2.22168H126.348C126.553 2.22168 126.72 2.05516 126.72 1.84961C126.72 1.64395 126.553 1.47754 126.348 1.47754H125.278ZM128.059 1.47754C127.853 1.47772 127.687 1.64408 127.687 1.84961C127.687 2.05505 127.853 2.2215 128.059 2.22168H129.128C129.334 2.22168 129.501 2.05516 129.501 1.84961C129.501 1.64395 129.334 1.47754 129.128 1.47754H128.059ZM130.84 1.47754C130.634 1.47754 130.467 1.64396 130.467 1.84961C130.467 2.05516 130.634 2.22168 130.84 2.22168H131.909C132.115 2.22158 132.281 2.0551 132.281 1.84961C132.281 1.64401 132.115 1.47764 131.909 1.47754H130.84ZM133.62 1.47754C133.414 1.47755 133.248 1.64397 133.248 1.84961C133.248 2.05516 133.415 2.22167 133.62 2.22168H134.689C134.895 2.22168 135.061 2.05516 135.062 1.84961C135.062 1.64395 134.895 1.47754 134.689 1.47754H133.62Z" fill="white"/>
</svg>
